<svg xmlns="http://www.w3.org/2000/svg" viewBox="0 0 128 128">
  <defs>
    <linearGradient id="reactGrad" x1="0%" y1="0%" x2="100%" y2="100%">
      <stop offset="0%" style="stop-color:#61dafb"/>
      <stop offset="100%" style="stop-color:#21a1c4"/>
    </linearGradient>
    <linearGradient id="bugGrad" x1="0%" y1="0%" x2="100%" y2="100%">
      <stop offset="0%" style="stop-color:#ff6b6b"/>
      <stop offset="100%" style="stop-color:#ee5a5a"/>
    </linearGradient>
    <linearGradient id="nhoGrad" x1="0%" y1="0%" x2="100%" y2="0%">
      <stop offset="0%" style="stop-color:#a855f7"/>
      <stop offset="100%" style="stop-color:#6366f1"/>
    </linearGradient>
  </defs>
  
  <circle cx="64" cy="64" r="62" fill="#1a1a2e"/>
  <circle cx="64" cy="64" r="58" fill="none" stroke="url(#nhoGrad)" stroke-width="2" opacity="0.6"/>
  
  <g fill="none" stroke="url(#reactGrad)" stroke-width="3" opacity="0.9">
    <ellipse cx="64" cy="58" rx="42" ry="16"/>
    <ellipse cx="64" cy="58" rx="42" ry="16" transform="rotate(60 64 58)"/>
    <ellipse cx="64" cy="58" rx="42" ry="16" transform="rotate(120 64 58)"/>
  </g>
  
  <circle cx="64" cy="58" r="8" fill="url(#reactGrad)"/>
  
  <g transform="translate(75, 70)">
    <ellipse cx="12" cy="14" rx="14" ry="12" fill="url(#bugGrad)"/>
    <circle cx="7" cy="11" r="3" fill="#1a1a2e"/>
    <circle cx="17" cy="11" r="3" fill="#1a1a2e"/>
    <path d="M6 6 L2 1" stroke="#ff6b6b" stroke-width="2.5" stroke-linecap="round"/>
    <path d="M18 6 L22 1" stroke="#ff6b6b" stroke-width="2.5" stroke-linecap="round"/>
    <path d="M0 10 L-4 8" stroke="#ff6b6b" stroke-width="2" stroke-linecap="round"/>
    <path d="M0 16 L-5 18" stroke="#ff6b6b" stroke-width="2" stroke-linecap="round"/>
    <path d="M24 10 L28 8" stroke="#ff6b6b" stroke-width="2" stroke-linecap="round"/>
    <path d="M24 16 L29 18" stroke="#ff6b6b" stroke-width="2" stroke-linecap="round"/>
    <ellipse cx="12" cy="20" rx="8" ry="5" fill="#ee5a5a"/>
  </g>
  
  <g transform="translate(8, 95)">
    <rect x="0" y="0" width="45" height="18" rx="4" fill="url(#nhoGrad)" opacity="0.95"/>
    <text x="22.5" y="13" text-anchor="middle" font-family="system-ui, -apple-system, sans-serif" font-size="11" font-weight="700" fill="#ffffff" letter-spacing="0.5">NhoNH</text>
  </g>
</svg>
